@startuml
set namespaceSeparator ::

class "flutter_assignment2::components::message.dart::Message" {
  +String imageOfOffer
  +String imageOfSolicitor
  +String solicitorName
  +String offerId
  +void acceptOffer()
  +void declineOffer()
  +Widget build()
}

"flutter::src::widgets::framework.dart::StatelessWidget" <|-- "flutter_assignment2::components::message.dart::Message"

class "flutter_assignment2::components::offer.dart::Offer" {
  +String id
  +String categoryId
  +String userId
  +String title
  +String description
  +String image
  +bool closed
  +String endDate
  +String createdAt
  +String closedAt
  +String distance
  +Map<String, dynamic> offerDetailsMap
  +Widget build()
}

"flutter::src::widgets::framework.dart::StatelessWidget" <|-- "flutter_assignment2::components::offer.dart::Offer"

class "flutter_assignment2::components::take_picture.dart::TakePictureScreen" {        
  +CameraDescription camera
  +TakePictureScreenState createState()
}

"flutter_assignment2::components::take_picture.dart::TakePictureScreen" o-- "camera_platform_interface::src::types::camera_description.dart::CameraDescription"
"flutter::src::widgets::framework.dart::StatefulWidget" <|-- "flutter_assignment2::components::take_picture.dart::TakePictureScreen"

class "flutter_assignment2::components::take_picture.dart::TakePictureScreenState" {   
  -CameraController _controller
  -Future<void> _initializeControllerFuture
  +void initState()
  +void dispose()
  +Widget build()
}

"flutter_assignment2::components::take_picture.dart::TakePictureScreenState" o-- "camera::src::camera_controller.dart::CameraController"
"flutter::src::widgets::framework.dart::State" <|-- "flutter_assignment2::components::take_picture.dart::TakePictureScreenState"

class "flutter_assignment2::components::take_picture.dart::DisplayPictureScreen" {     
  +String imagePath
  +Widget build()
}

"flutter::src::widgets::framework.dart::StatelessWidget" <|-- "flutter_assignment2::components::take_picture.dart::DisplayPictureScreen"

class "flutter_assignment2::main.dart::MyApp" {
  +Widget build()
}

"flutter::src::widgets::framework.dart::StatelessWidget" <|-- "flutter_assignment2::main.dart::MyApp"

class "flutter_assignment2::main.dart::LogoPage" {
  +String title
  +State<LogoPage> createState()
}

"flutter::src::widgets::framework.dart::StatefulWidget" <|-- "flutter_assignment2::main.dart::LogoPage"

class "flutter_assignment2::main.dart::_LogoPage" {
  +void initState()
  +Widget build()
}

"flutter::src::widgets::framework.dart::State" <|-- "flutter_assignment2::main.dart::_LogoPage"

class "flutter_assignment2::pages::favorites_page.dart::FavoritesPage" {
  +State<FavoritesPage> createState()
}

"flutter::src::widgets::framework.dart::StatefulWidget" <|-- "flutter_assignment2::pages::favorites_page.dart::FavoritesPage"

class "flutter_assignment2::pages::favorites_page.dart::_FavoritesPageState" {
  +Widget customSearchBar
  +List<Map<String, dynamic>> favoriteOffers
  +void getFavoriteOffers()
  +Widget build()
}

"flutter_assignment2::pages::favorites_page.dart::_FavoritesPageState" o-- "flutter::src::widgets::framework.dart::Widget"
"flutter::src::widgets::framework.dart::State" <|-- "flutter_assignment2::pages::favorites_page.dart::_FavoritesPageState"

class "flutter_assignment2::pages::home_page.dart::MyHomePage" {
  +State<MyHomePage> createState()
}

"flutter::src::widgets::framework.dart::StatefulWidget" <|-- "flutter_assignment2::pages::home_page.dart::MyHomePage"

class "flutter_assignment2::pages::home_page.dart::_MyHomePageState" {
  +Icon customIcon
  +Widget customSearchBar
  +List<Map<String, dynamic>> offers
  +void getOffers()
  +Widget build()
}

"flutter_assignment2::pages::home_page.dart::_MyHomePageState" o-- "flutter::src::widgets::icon.dart::Icon"
"flutter_assignment2::pages::home_page.dart::_MyHomePageState" o-- "flutter::src::widgets::framework.dart::Widget"
"flutter::src::widgets::framework.dart::State" <|-- "flutter_assignment2::pages::home_page.dart::_MyHomePageState"

class "flutter_assignment2::pages::login_page.dart::LoginPage" {
  +State<LoginPage> createState()
}

"flutter::src::widgets::framework.dart::StatefulWidget" <|-- "flutter_assignment2::pages::login_page.dart::LoginPage"

class "flutter_assignment2::pages::login_page.dart::_LoginPage" {
  +TextEditingController myControllerUsername
  +TextEditingController myControllerPassword
  +Future<void> validateLogin()
  +Widget build()
}

"flutter_assignment2::pages::login_page.dart::_LoginPage" o-- "flutter::src::widgets::editable_text.dart::TextEditingController"
"flutter::src::widgets::framework.dart::State" <|-- "flutter_assignment2::pages::login_page.dart::_LoginPage"

class "flutter_assignment2::pages::messages_page.dart::MessagesPage" {
  +State<MessagesPage> createState()
}

"flutter::src::widgets::framework.dart::StatefulWidget" <|-- "flutter_assignment2::pages::messages_page.dart::MessagesPage"

class "flutter_assignment2::pages::messages_page.dart::_MessagesPage" {
  +Map<String, dynamic> userDetails
  +List<Map<String, String>> myMessages
  +void getMessages()
  +Widget build()
}

"flutter::src::widgets::framework.dart::State" <|-- "flutter_assignment2::pages::messages_page.dart::_MessagesPage"

class "flutter_assignment2::pages::my_offers_page.dart::MyOffers" {
  +State<MyOffers> createState()
}

"flutter::src::widgets::framework.dart::StatefulWidget" <|-- "flutter_assignment2::pages::my_offers_page.dart::MyOffers"

class "flutter_assignment2::pages::my_offers_page.dart::_MyOffers" {
  +Map<String, dynamic> userDetails
  +List<Map<String, dynamic>> myOffers
  +void getFavoriteOffers()
  +Widget build()
}

"flutter::src::widgets::framework.dart::State" <|-- "flutter_assignment2::pages::my_offers_page.dart::_MyOffers"

class "flutter_assignment2::pages::offer_details_page.dart::OfferDetails" {
  +Map<String, dynamic> offerDetailsMap
  +State<OfferDetails> createState()
}

"flutter::src::widgets::framework.dart::StatefulWidget" <|-- "flutter_assignment2::pages::offer_details_page.dart::OfferDetails"

class "flutter_assignment2::pages::offer_details_page.dart::_OfferDetails" {
  +Map<String, dynamic> offerDetails
  +String title
  +String best_before
  +String distance
  +String image
  +String city
  +String description
  +bool reserved
  +Future<void> reserve()
  +void cancelReservation()
  -Future<void> _showReservationConfirmationDialog()
  -Future<void> _showAnimationOfReservationDialog()
  +Widget navBar()
  +Widget build()
}

"flutter::src::widgets::framework.dart::State" <|-- "flutter_assignment2::pages::offer_details_page.dart::_OfferDetails"

class "flutter_assignment2::pages::post_offer_page.dart::PostOffer" {
  +State<PostOffer> createState()
}

"flutter::src::widgets::framework.dart::StatefulWidget" <|-- "flutter_assignment2::pages::post_offer_page.dart::PostOffer"

class "flutter_assignment2::pages::post_offer_page.dart::_PostOffer" {
  +TextEditingController myControllerName
  +TextEditingController myControllerDescription
  +TextEditingController myControllerDate
  +DateTime? newDate
  +String image1
  +String image2
  +String image3
  +String image4
  +void postOffer()
  +void validateOffer()
  -Future<void> _showErrorInDateFormat()
  +Widget pictureButton()
  +Widget imageContainer()
  +Future<void> datePicker()
  +Widget build()
}

"flutter_assignment2::pages::post_offer_page.dart::_PostOffer" o-- "flutter::src::widgets::editable_text.dart::TextEditingController"
"flutter::src::widgets::framework.dart::State" <|-- "flutter_assignment2::pages::post_offer_page.dart::_PostOffer"

class "flutter_assignment2::pages::profile_page.dart::ProfilePage" {
  +State<ProfilePage> createState()
}

"flutter::src::widgets::framework.dart::StatefulWidget" <|-- "flutter_assignment2::pages::profile_page.dart::ProfilePage"

class "flutter_assignment2::pages::profile_page.dart::_ProfilePage" {
  +Map<String, dynamic> userDetails
  +List<Map<String, dynamic>> friends
  +Widget build()
}

"flutter::src::widgets::framework.dart::State" <|-- "flutter_assignment2::pages::profile_page.dart::_ProfilePage"

class "flutter_assignment2::pages::register_page.dart::RegisterPage" {
  +State<RegisterPage> createState()
}

"flutter::src::widgets::framework.dart::StatefulWidget" <|-- "flutter_assignment2::pages::register_page.dart::RegisterPage"

class "flutter_assignment2::pages::register_page.dart::_RegisterPage" {
  +TextEditingController myControllerUsername
  +TextEditingController myControllerPassword
  +TextEditingController myControllerPassword2
  +Future<void> validateSignUp()
  +Widget build()
}

"flutter_assignment2::pages::register_page.dart::_RegisterPage" o-- "flutter::src::widgets::editable_text.dart::TextEditingController"
"flutter::src::widgets::framework.dart::State" <|-- "flutter_assignment2::pages::register_page.dart::_RegisterPage"


@enduml